<svg width="22" height="23" viewBox="0 0 22 23" fill="none" xmlns="http://www.w3.org/2000/svg">
<path d="M20.5933 11.5C20.5933 17.3594 16.1487 22 10.7966 22C5.44462 22 1 17.3594 1 11.5C1 5.64062 5.44462 1 10.7966 1C16.1487 1 20.5933 5.64062 20.5933 11.5Z" stroke="#F7567C" stroke-width="2"/>
<path d="M8.87358 16.7176C8.66989 16.7175 8.47455 16.6313 8.33054 16.4778L5.25814 13.2053C5.11626 13.0514 5.03718 12.8441 5.03809 12.6284C5.03901 12.4127 5.11985 12.2062 5.26303 12.0537C5.40621 11.9011 5.60014 11.815 5.80262 11.8141C6.00511 11.8131 6.19976 11.8973 6.34423 12.0484L8.8443 14.7114L15.2156 7.17076C15.3519 7.0095 15.5427 6.91251 15.7462 6.90112C15.9496 6.88974 16.1489 6.96488 16.3003 7.11004C16.4517 7.25519 16.5427 7.45846 16.5534 7.67512C16.5641 7.89179 16.4936 8.1041 16.3573 8.26536L9.4444 16.4467C9.37463 16.5292 9.28985 16.5958 9.19521 16.6423C9.10057 16.6889 8.99804 16.7145 8.89384 16.7176H8.87358Z" fill="#F7567C"/>
</svg>
