<svg width="49" height="48" viewBox="0 0 49 48" fill="none" xmlns="http://www.w3.org/2000/svg">
<g clip-path="url(#clip0_23_1734)">
<path d="M35.0103 3.24999C35.3641 2.85484 35.8604 2.61641 36.39 2.58715C36.9195 2.5579 37.4391 2.74021 37.8343 3.09399C39.9337 4.96803 41.6129 7.26494 42.7618 9.83392C43.9106 12.4029 44.5031 15.1858 44.5003 18C44.5003 28.182 36.8923 36.588 27.0503 37.84L26.5003 37.9V40H32.5003C33.01 40.0006 33.5003 40.1957 33.871 40.5457C34.2417 40.8956 34.4647 41.3739 34.4946 41.8828C34.5245 42.3917 34.3589 42.8927 34.0317 43.2837C33.7045 43.6746 33.2405 43.9258 32.7343 43.986L32.5003 44H16.5003C15.9905 43.9994 15.5002 43.8042 15.1295 43.4543C14.7589 43.1044 14.5358 42.6261 14.5059 42.1172C14.476 41.6083 14.6416 41.1072 14.9688 40.7163C15.296 40.3254 15.7601 40.0742 16.2663 40.014L16.5003 40H22.5003V37.9C19.5536 37.6046 16.7093 36.6583 14.173 35.1296C11.6366 33.6008 9.47159 31.5276 7.83426 29.06C7.54066 28.6181 7.43462 28.0778 7.53945 27.5577C7.64428 27.0377 7.95141 26.5806 8.39326 26.287C8.83511 25.9934 9.37549 25.8873 9.89553 25.9922C10.4156 26.097 10.8727 26.4041 11.1663 26.846C12.5678 28.9602 14.4523 30.7106 16.6641 31.9525C18.8759 33.1944 21.3515 33.8921 23.8863 33.988L24.5223 34C27.7608 33.9955 30.9217 33.0083 33.5872 31.169C36.2527 29.3296 38.2973 26.7247 39.4508 23.6985C40.6042 20.6723 40.8122 17.3674 40.0471 14.2205C39.2821 11.0736 37.5802 8.23294 35.1663 6.07399C34.7711 5.72018 34.5327 5.22389 34.5034 4.69429C34.4742 4.1647 34.6565 3.64517 35.0103 3.24999ZM24.5003 3.99999C28.2133 3.99999 31.7742 5.47498 34.3998 8.10049C37.0253 10.726 38.5003 14.287 38.5003 18C38.5003 21.713 37.0253 25.274 34.3998 27.8995C31.7742 30.525 28.2133 32 24.5003 32C20.7872 32 17.2263 30.525 14.6008 27.8995C11.9753 25.274 10.5003 21.713 10.5003 18C10.5003 14.287 11.9753 10.726 14.6008 8.10049C17.2263 5.47498 20.7872 3.99999 24.5003 3.99999ZM24.5003 7.99999C21.8481 7.99999 19.3046 9.05356 17.4292 10.9289C15.5538 12.8043 14.5003 15.3478 14.5003 18C14.5003 20.6522 15.5538 23.1957 17.4292 25.0711C19.3046 26.9464 21.8481 28 24.5003 28C27.1524 28 29.696 26.9464 31.5713 25.0711C33.4467 23.1957 34.5003 20.6522 34.5003 18C34.5003 15.3478 33.4467 12.8043 31.5713 10.9289C29.696 9.05356 27.1524 7.99999 24.5003 7.99999Z" fill="#F7567C"/>
</g>
<defs>
<clipPath id="clip0_23_1734">
<rect width="48" height="48" fill="white" transform="translate(0.5)"/>
</clipPath>
</defs>
</svg>
