<svg width="49" height="48" viewBox="0 0 49 48" fill="none" xmlns="http://www.w3.org/2000/svg">
<g clip-path="url(#clip0_23_1758)">
<path fill-rule="evenodd" clip-rule="evenodd" d="M23.006 23.58L23.458 23.68L30.89 25.536C33.232 26.122 34.41 28.592 33.67 30.816L34.31 30.376L35.602 29.452C36.252 28.992 36.916 28.556 37.606 28.212C40.678 26.676 44.274 28.794 44.49 32.154L44.5 32.474V32.584C44.5 33.978 43.9 35.298 42.86 36.212L42.566 36.452L36.426 41.056C35.828 41.504 35.154 41.836 34.438 42.036L34.002 42.14L27.582 43.424C25.5881 43.8222 23.5202 43.6031 21.654 42.796L21.15 42.562L16.45 40.212C16.2426 40.1074 16.0186 40.0397 15.788 40.012L15.556 40H13.964C13.6416 40.5585 13.189 41.0308 12.6447 41.3766C12.1004 41.7224 11.4806 41.9315 10.838 41.986L10.5 42H8.5C7.49085 42.0003 6.51887 41.6192 5.7789 40.933C5.03894 40.2468 4.58569 39.3063 4.51 38.3L4.5 38V30C4.50019 28.9912 4.88154 28.0197 5.56767 27.2802C6.25381 26.5406 7.19403 26.0877 8.2 26.012L8.5 26H10.5C11.468 26 12.356 26.344 13.048 26.918L13.298 27.142L17.278 24.656C18.8491 23.6737 20.7125 23.2672 22.55 23.506L23.006 23.58ZM19.398 28.048L14.5 31.108V36H15.556C16.4878 36.0001 17.4067 36.2171 18.24 36.634L22.94 38.984C24.1335 39.5804 25.4917 39.762 26.8 39.5L33.218 38.216C33.5109 38.1579 33.787 38.0349 34.026 37.856L40.166 33.25C40.422 33.058 40.5 32.776 40.5 32.472C40.5001 32.3491 40.4705 32.228 40.4137 32.119C40.357 32.0099 40.2747 31.9162 40.174 31.8457C40.0733 31.7753 39.9571 31.7301 39.8353 31.7142C39.7134 31.6982 39.5895 31.7119 39.474 31.754L34.618 34.994C33.6317 35.6508 32.473 36.0009 31.288 36H24.5V32H27.618C28.0376 31.9997 28.4464 31.8674 28.7867 31.6219C29.127 31.3764 29.3814 31.0301 29.514 30.632L29.92 29.416L22.488 27.56C21.9666 27.4296 21.4242 27.4056 20.8933 27.4894C20.3624 27.5733 19.8538 27.7632 19.398 28.048ZM10.5 30H8.5V38H10.5V30ZM32.5 6.94001C34.56 5.65201 36.924 5.75401 38.832 6.86601C41.056 8.16201 42.564 10.75 42.498 13.71C42.416 17.38 39.678 20.398 35.622 22.91L34.826 23.388C34.11 23.812 33.346 24.224 32.5 24.224C31.654 24.224 30.89 23.812 30.174 23.388L29.378 22.908C25.32 20.396 22.584 17.38 22.5 13.708C22.434 10.748 23.942 8.16001 26.166 6.86401C28.074 5.75201 30.436 5.65001 32.498 6.93801L32.5 6.94001ZM36.818 10.322C36.06 9.88201 35.158 9.83001 34.262 10.594L33.85 10.974C33.4663 11.2794 32.9904 11.4456 32.5 11.4456C32.0096 11.4456 31.5337 11.2794 31.15 10.974L30.738 10.594C29.84 9.83001 28.938 9.88001 28.182 10.322C27.26 10.86 26.466 12.062 26.502 13.622C26.536 15.178 27.738 17.182 31.438 19.48L31.914 19.768L32.5 20.11L33.086 19.77C37.16 17.346 38.462 15.24 38.5 13.616C38.536 12.058 37.742 10.856 36.82 10.318L36.818 10.322Z" fill="#F7567C"/>
</g>
<defs>
<clipPath id="clip0_23_1758">
<rect width="48" height="48" fill="white" transform="translate(0.5)"/>
</clipPath>
</defs>
</svg>
