<svg width="49" height="48" viewBox="0 0 49 48" fill="none" xmlns="http://www.w3.org/2000/svg">
<g clip-path="url(#clip0_23_1746)">
<path d="M37.3401 5.594L38.1121 5.706C39.3121 5.896 40.6561 6.214 41.4821 7.04C42.3101 7.868 42.6281 9.212 42.8181 10.412L42.9301 11.182C43.1821 13.002 43.2481 15.388 42.8181 18.036C41.9701 23.262 39.1881 29.496 32.2021 34.326C32.1699 34.683 32.1585 35.0416 32.1681 35.4L32.2021 36.486C32.2221 37.21 32.2101 37.932 32.0101 38.626C31.6301 39.946 30.2761 40.816 29.0101 41.44L28.3901 41.734L27.5901 42.086L27.0441 42.306C25.6301 42.846 23.9241 43.224 22.8081 42.106C22.3021 41.6 22.0681 40.912 21.8801 40.224L21.7881 39.88C21.4681 38.666 21.1061 37.46 20.6541 36.292C20.5292 36.4436 20.397 36.5892 20.2581 36.728C19.1681 37.816 17.6901 38.364 16.2121 38.788L15.2301 39.058L14.2501 39.318L13.2941 39.558L12.4301 39.758L11.3961 39.978L10.7501 40.104C10.4278 40.1642 10.0957 40.1449 9.7826 40.0479C9.46946 39.9509 9.18467 39.779 8.95286 39.5472C8.72105 39.3154 8.54921 39.0306 8.45219 38.7175C8.35518 38.4043 8.33591 38.0723 8.39606 37.75L8.61806 36.648L8.87606 35.492L9.12406 34.472L9.57406 32.782C10.0201 31.142 10.5621 29.452 11.7741 28.242L11.9721 28.052L10.4461 27.504L8.91206 26.976C8.01406 26.68 7.07006 26.368 6.41806 25.716C5.22606 24.524 5.73206 22.664 6.32606 21.202L6.65806 20.428L6.93206 19.826C7.56606 18.478 8.46606 16.926 9.89806 16.514C10.5921 16.314 11.3121 16.302 12.0381 16.32L13.1241 16.356C13.4841 16.362 13.8441 16.356 14.1981 16.322C19.0261 9.336 25.2621 6.554 30.4881 5.706C32.7542 5.33241 35.063 5.29467 37.3401 5.594ZM31.1281 9.654C26.7321 10.368 21.3901 12.722 17.2221 18.992C16.7161 19.752 15.8621 20.114 14.9921 20.252C14.5001 20.332 14.0041 20.352 13.5061 20.352L12.0121 20.33C11.7641 20.33 11.5141 20.33 11.2661 20.342C10.6581 21.15 10.2341 22.11 9.91606 23.064L12.9161 24.154L14.1501 24.62C16.4061 25.504 18.5901 26.574 20.2701 28.254C23.1001 31.084 24.5381 34.786 25.5781 38.568C26.4901 38.248 27.4061 37.84 28.1821 37.258L28.1941 36.512L28.1721 35.02C28.1721 34.524 28.1921 34.028 28.2721 33.532C28.4081 32.662 28.7721 31.808 29.5321 31.302C35.8021 27.134 38.1561 21.792 38.8701 17.396C39.2301 15.176 39.1701 13.192 38.9681 11.73C38.8905 11.1234 38.7614 10.5246 38.5821 9.94C37.9974 9.76133 37.3986 9.63287 36.7921 9.556C34.9093 9.31193 33.001 9.34362 31.1281 9.654ZM14.6001 31.07C13.9001 31.916 13.5741 33.026 13.3121 34.126L13.0961 35.062L12.9861 35.514L14.3741 35.188C15.4741 34.928 16.5861 34.598 17.4301 33.898C17.8051 33.5227 18.0157 33.0138 18.0155 32.4833C18.0153 31.9528 17.8043 31.444 17.4291 31.069C17.0538 30.694 16.5449 30.4834 16.0144 30.4836C15.4838 30.4838 14.9751 30.6947 14.6001 31.07ZM25.9141 16.93C26.2854 16.5585 26.7264 16.2638 27.2116 16.0627C27.6969 15.8615 28.2171 15.758 28.7424 15.7579C29.2677 15.7578 29.7878 15.8612 30.2732 16.0621C30.7585 16.2631 31.1995 16.5576 31.5711 16.929C31.9426 17.3004 32.2373 17.7413 32.4384 18.2266C32.6395 18.7119 32.7431 19.232 32.7432 19.7573C32.7433 20.2826 32.6399 20.8028 32.4389 21.2881C32.238 21.7735 31.9434 22.2145 31.5721 22.586C30.8218 23.3363 29.8041 23.7578 28.7431 23.7578C27.682 23.7578 26.6644 23.3363 25.9141 22.586C25.1638 21.8357 24.7422 20.8181 24.7422 19.757C24.7422 18.6959 25.1638 17.6783 25.9141 16.928V16.93Z" fill="#F7567C"/>
</g>
<defs>
<clipPath id="clip0_23_1746">
<rect width="48" height="48" fill="white" transform="translate(0.5)"/>
</clipPath>
</defs>
</svg>
