<svg width="49" height="48" viewBox="0 0 49 48" fill="none" xmlns="http://www.w3.org/2000/svg">
<path d="M24.5 4C26.292 4 28.028 4.236 29.68 4.678L25.428 8.928C25.1054 9.25186 24.8209 9.61153 24.58 10H24.5C21.7311 10 19.0243 10.8211 16.722 12.3594C14.4197 13.8978 12.6253 16.0843 11.5657 18.6424C10.5061 21.2006 10.2288 24.0155 10.769 26.7313C11.3092 29.447 12.6426 31.9416 14.6005 33.8995C16.5584 35.8574 19.053 37.1908 21.7687 37.731C24.4845 38.2712 27.2994 37.9939 29.8576 36.9343C32.4157 35.8747 34.6022 34.0803 36.1406 31.778C37.6789 29.4757 38.5 26.7689 38.5 24V23.92C38.884 23.68 39.244 23.398 39.57 23.07L43.822 18.82C44.264 20.472 44.5 22.208 44.5 24C44.5 35.046 35.546 44 24.5 44C13.454 44 4.5 35.046 4.5 24C4.5 12.954 13.454 4 24.5 4ZM23.672 14.034C23.672 15.736 23.588 17.462 23.68 19.162L22.6 20.242C22.2285 20.6135 21.9338 21.0546 21.7327 21.54C21.5317 22.0254 21.4282 22.5456 21.4282 23.071C21.4282 23.5964 21.5317 24.1166 21.7327 24.602C21.9338 25.0874 22.2285 25.5285 22.6 25.9C22.9715 26.2715 23.4126 26.5662 23.898 26.7673C24.3834 26.9683 24.9036 27.0718 25.429 27.0718C25.9544 27.0718 26.4746 26.9683 26.96 26.7673C27.4454 26.5662 27.8865 26.2715 28.258 25.9L29.338 24.82C31.038 24.912 32.762 24.828 34.466 24.828C34.308 26.7287 33.6098 28.5445 32.4537 30.0614C31.2975 31.5783 29.7317 32.7329 27.9409 33.3891C26.1501 34.0453 24.209 34.1757 22.3466 33.7649C20.4841 33.3541 18.7779 32.4193 17.4293 31.0707C16.0807 29.7221 15.1459 28.0159 14.7351 26.1534C14.3243 24.291 14.4547 22.3499 15.1109 20.5591C15.7671 18.7683 16.9217 17.2025 18.4386 16.0463C19.9555 14.8902 21.7713 14.192 23.672 14.034ZM37.508 4.254C37.8731 4.40536 38.1851 4.66147 38.4047 4.99002C38.6243 5.31856 38.7417 5.70481 38.742 6.1V9.76H42.4C42.7955 9.76008 43.1821 9.87743 43.5109 10.0972C43.8397 10.317 44.096 10.6293 44.2474 10.9947C44.3987 11.3601 44.4383 11.7622 44.3612 12.1501C44.284 12.538 44.0936 12.8943 43.814 13.174L36.74 20.24C36.365 20.6151 35.8564 20.8259 35.326 20.826H30.5L26.844 24.484C26.4687 24.8593 25.9597 25.0701 25.429 25.0701C24.8983 25.0701 24.3893 24.8593 24.014 24.484C23.6387 24.1087 23.4279 23.5997 23.4279 23.069C23.4279 22.5383 23.6387 22.0293 24.014 21.654L27.672 18V13.172C27.6718 12.909 27.7234 12.6486 27.824 12.4056C27.9246 12.1627 28.072 11.9419 28.258 11.756L35.328 4.686C35.6077 4.40613 35.9641 4.21552 36.3522 4.13826C36.7402 4.06101 37.1425 4.10059 37.508 4.252" fill="#F7567C"/>
</svg>
