<svg width="35" height="34" viewBox="0 0 35 34" fill="none" xmlns="http://www.w3.org/2000/svg">
<path d="M24.0166 8.245C23.0482 7.13946 22.5146 5.7197 22.515 4.25H18.1375V21.8167C18.1037 22.7673 17.7024 23.6677 17.018 24.3283C16.3336 24.9889 15.4195 25.3582 14.4683 25.3583C12.4566 25.3583 10.785 23.715 10.785 21.675C10.785 19.2383 13.1366 17.4108 15.5591 18.1617V13.685C10.6716 13.0333 6.39331 16.83 6.39331 21.675C6.39331 26.3925 10.3033 29.75 14.4541 29.75C18.9025 29.75 22.515 26.1375 22.515 21.675V12.7642C24.2901 14.039 26.4212 14.7229 28.6066 14.7192V10.3417C28.6066 10.3417 25.9433 10.4692 24.0166 8.245Z" fill="black"/>
</svg>
