<svg width="43" height="34" viewBox="0 0 43 34" fill="none" xmlns="http://www.w3.org/2000/svg">
<g clip-path="url(#clip0_23_1854)">
<path d="M41.5724 5.30306C41.3315 4.27806 40.8616 3.34361 40.2094 2.59274C39.5573 1.84188 38.7457 1.3008 37.8554 1.0234C34.5962 0 21.4787 0 21.4787 0C21.4787 0 8.36059 0.0309777 5.10133 1.05438C4.21104 1.3318 3.39942 1.8729 2.74727 2.6238C2.09512 3.3747 1.62521 4.30919 1.38433 5.33422C0.398477 12.0016 0.0160471 22.1612 1.4114 28.5619C1.6523 29.5869 2.12223 30.5213 2.77437 31.2722C3.42652 32.0231 4.23813 32.5641 5.1284 32.8415C8.38766 33.8649 21.5054 33.8649 21.5054 33.8649C21.5054 33.8649 34.6231 33.8649 37.8822 32.8415C38.7725 32.5642 39.5841 32.0231 40.2363 31.2722C40.8885 30.5214 41.3584 29.5869 41.5993 28.5619C42.6392 21.885 42.9596 11.7317 41.5724 5.30306Z" fill="#FF0000"/>
<path d="M17.3037 24.189L28.1856 16.9323L17.3037 9.67554V24.189Z" fill="white"/>
</g>
<defs>
<clipPath id="clip0_23_1854">
<rect width="42" height="34" fill="white" transform="translate(0.5)"/>
</clipPath>
</defs>
</svg>
